<svg width="12" height="17" viewBox="0 0 12 17" fill="none" xmlns="http://www.w3.org/2000/svg">
<path d="M11.088 5.28C11.1307 5.49333 11.088 5.696 10.96 5.888C10.8533 6.08 10.6827 6.208 10.448 6.272C10.0427 6.4 9.57333 6.432 9.04 6.368C8.50667 6.28267 7.96267 6.24 7.408 6.24C7.19467 6.24 6.992 6.31467 6.8 6.464C6.62933 6.592 6.512 6.752 6.448 6.944C6.29867 7.392 6.14933 7.91467 6 8.512C5.872 9.088 5.776 9.64267 5.712 10.176C5.648 10.688 5.62667 11.0827 5.648 11.36C5.648 11.488 5.59467 11.552 5.488 11.552C5.38133 11.552 5.328 11.6053 5.328 11.712C5.37067 12.2453 5.28533 12.8747 5.072 13.6C4.88 14.304 4.70933 15.008 4.56 15.712C4.51733 16.032 4.35733 16.2773 4.08 16.448C3.84533 16.6187 3.57867 16.6293 3.28 16.48C2.704 16.0747 2.42667 15.4347 2.448 14.56C2.448 14.3893 2.50133 14.176 2.608 13.92C2.736 13.6427 2.832 13.3867 2.896 13.152C2.93867 12.9173 2.992 12.5653 3.056 12.096C3.14133 11.6053 3.22667 11.072 3.312 10.496C3.41867 9.92 3.52533 9.376 3.632 8.864C3.76 8.352 3.888 7.95733 4.016 7.68C4.03733 7.57333 4.048 7.47733 4.048 7.392C4.06933 7.30667 4.08 7.21067 4.08 7.104C4.03733 6.86933 3.90933 6.73067 3.696 6.688C3.41867 6.64533 3.12 6.592 2.8 6.528C2.50133 6.44267 2.21333 6.368 1.936 6.304C1.65867 6.28267 1.392 6.15467 1.136 5.92C1.02933 5.81333 0.901333 5.728 0.752 5.664C0.602667 5.57867 0.485333 5.46133 0.4 5.312C0.250667 5.14133 0.229333 4.94933 0.336 4.736C0.442667 4.52267 0.602667 4.40533 0.816 4.384C1.30667 4.29867 1.808 4.24533 2.32 4.224C2.85333 4.20267 3.41867 4.17067 4.016 4.128C4.22933 4.128 4.42133 4.05333 4.592 3.904C4.76267 3.75467 4.86933 3.57333 4.912 3.36C5.04 2.912 5.14667 2.50667 5.232 2.144C5.31733 1.78133 5.424 1.42933 5.552 1.088C5.63733 0.895999 5.76533 0.778666 5.936 0.735999C6.128 0.693332 6.29867 0.725332 6.448 0.831999C6.74667 1.13067 6.96 1.504 7.088 1.952C7.216 2.4 7.25867 2.86933 7.216 3.36C7.19467 3.53067 7.23733 3.68 7.344 3.808C7.472 3.936 7.62133 4 7.792 4C8.34667 3.95733 8.88 3.97867 9.392 4.064C9.904 4.128 10.2987 4.34133 10.576 4.704C10.6187 4.832 10.704 4.87467 10.832 4.832C10.9813 4.832 11.056 4.896 11.056 5.024C11.056 5.06667 11.056 5.10933 11.056 5.152C11.0773 5.19467 11.088 5.23733 11.088 5.28Z" fill="#4C7972"/>
</svg>
