<svg width="37" height="36" viewBox="0 0 37 36" fill="none" xmlns="http://www.w3.org/2000/svg">
<path d="M18.1576 30.3107L8.28624 24.463C7.98574 24.285 7.7999 23.9631 7.79598 23.6138L7.66738 12.1411C7.66333 11.7798 7.85444 11.4445 8.16731 11.2638L17.8327 5.68354C18.1456 5.5029 18.5315 5.50506 18.8424 5.6892L28.7138 11.537C29.0143 11.715 29.2001 12.0369 29.204 12.3861L29.3326 23.8589C29.3367 24.2201 29.1456 24.5555 28.8327 24.7361L19.1673 30.3164C18.8544 30.497 18.4685 30.4949 18.1576 30.3107Z" stroke="#4C7972" stroke-width="2"/>
<path d="M24.088 14.28C24.1307 14.4933 24.088 14.696 23.96 14.888C23.8533 15.08 23.6827 15.208 23.448 15.272C23.0427 15.4 22.5733 15.432 22.04 15.368C21.5067 15.2827 20.9627 15.24 20.408 15.24C20.1947 15.24 19.992 15.3147 19.8 15.464C19.6293 15.592 19.512 15.752 19.448 15.944C19.2987 16.392 19.1493 16.9147 19 17.512C18.872 18.088 18.776 18.6427 18.712 19.176C18.648 19.688 18.6267 20.0827 18.648 20.36C18.648 20.488 18.5947 20.552 18.488 20.552C18.3813 20.552 18.328 20.6053 18.328 20.712C18.3707 21.2453 18.2853 21.8747 18.072 22.6C17.88 23.304 17.7093 24.008 17.56 24.712C17.5173 25.032 17.3573 25.2773 17.08 25.448C16.8453 25.6187 16.5787 25.6293 16.28 25.48C15.704 25.0747 15.4267 24.4347 15.448 23.56C15.448 23.3893 15.5013 23.176 15.608 22.92C15.736 22.6427 15.832 22.3867 15.896 22.152C15.9387 21.9173 15.992 21.5653 16.056 21.096C16.1413 20.6053 16.2267 20.072 16.312 19.496C16.4187 18.92 16.5253 18.376 16.632 17.864C16.76 17.352 16.888 16.9573 17.016 16.68C17.0373 16.5733 17.048 16.4773 17.048 16.392C17.0693 16.3067 17.08 16.2107 17.08 16.104C17.0373 15.8693 16.9093 15.7307 16.696 15.688C16.4187 15.6453 16.12 15.592 15.8 15.528C15.5013 15.4427 15.2133 15.368 14.936 15.304C14.6587 15.2827 14.392 15.1547 14.136 14.92C14.0293 14.8133 13.9013 14.728 13.752 14.664C13.6027 14.5787 13.4853 14.4613 13.4 14.312C13.2507 14.1413 13.2293 13.9493 13.336 13.736C13.4427 13.5227 13.6027 13.4053 13.816 13.384C14.3067 13.2987 14.808 13.2453 15.32 13.224C15.8533 13.2027 16.4187 13.1707 17.016 13.128C17.2293 13.128 17.4213 13.0533 17.592 12.904C17.7627 12.7547 17.8693 12.5733 17.912 12.36C18.04 11.912 18.1467 11.5067 18.232 11.144C18.3173 10.7813 18.424 10.4293 18.552 10.088C18.6373 9.896 18.7653 9.77867 18.936 9.736C19.128 9.69333 19.2987 9.72533 19.448 9.832C19.7467 10.1307 19.96 10.504 20.088 10.952C20.216 11.4 20.2587 11.8693 20.216 12.36C20.1947 12.5307 20.2373 12.68 20.344 12.808C20.472 12.936 20.6213 13 20.792 13C21.3467 12.9573 21.88 12.9787 22.392 13.064C22.904 13.128 23.2987 13.3413 23.576 13.704C23.6187 13.832 23.704 13.8747 23.832 13.832C23.9813 13.832 24.056 13.896 24.056 14.024C24.056 14.0667 24.056 14.1093 24.056 14.152C24.0773 14.1947 24.088 14.2373 24.088 14.28Z" fill="#4C7972"/>
</svg>
